<?xml version="1.0" encoding="utf-8"?>
<!-- Generator: Adobe Illustrator 22.1.0, SVG Export Plug-In . SVG Version: 6.00 Build 0)  -->
<svg version="1.1" id="Layer_1" xmlns="http://www.w3.org/2000/svg" xmlns:xlink="http://www.w3.org/1999/xlink" x="0px" y="0px"
	 viewBox="0 0 1080 1080" style="enable-background:new 0 0 1080 1080;" xml:space="preserve">
<style type="text/css">
	.st0{display:none;fill:#FFFFFF;}
	.st1{fill:#1B1464;}
	.st2{fill:#0071BC;}
	.st3{fill:url(#Middle_2_);}
</style>
<polygon class="st0" points="150,150 150,931 413.5,931 150.4,667.8 361.1,457.1 385.2,529.5 254.8,659.9 312.1,717.3 420.3,609.1 
	448.4,677.4 360.3,765.5 421.6,826.8 552,696.3 552.1,696.4 596,652.5 380.8,437.4 459.5,358.7 688,459.1 587.6,230.6 666.7,151.6 
	930.3,415.3 930.3,415.3 930,528 684,282 799.5,546.1 775,570.6 510.9,455.2 700.6,644.9 644,701 644.2,700.8 600.3,744.6 600,745 
	414.6,931 931,931 931,529 931,150 "/>
<polygon id="E_1_" class="st1" points="700.6,644.9 645,700 644.2,700.8 600.3,744.6 600,745 414.1,931.5 413.5,931 150.4,667.8 
	361.1,457.1 385.2,529.5 254.8,659.9 312.1,717.3 420.3,609.1 448.4,677.4 360.3,765.5 421.6,826.8 552,696.3 552.1,696.4 
	596,652.5 "/>
<polygon id="M_2_" class="st2" points="600,745 600.3,744.6 644.2,700.8 645,700 700.6,644.9 510.9,455.2 775,570.6 799.5,546.1 
	684,282 931,529 931,416 930.3,415.3 666.7,151.6 587.6,230.6 688,459.1 459.5,358.7 380.8,437.4 596,652.5 552.1,696.4 552,696.3 
	"/>
<linearGradient id="Middle_2_" gradientUnits="userSpaceOnUse" x1="413.5" y1="291.8" x2="700.6" y2="291.8" gradientTransform="matrix(1 0 0 -1 0 1080)">
	<stop  offset="0" style="stop-color:#1B1464"/>
	<stop  offset="6.255928e-02" style="stop-color:#172271"/>
	<stop  offset="0.2414" style="stop-color:#0D4492"/>
	<stop  offset="0.411" style="stop-color:#065DA9"/>
	<stop  offset="0.5659" style="stop-color:#026CB7"/>
	<stop  offset="0.6927" style="stop-color:#0071BC"/>
</linearGradient>
<polygon id="Middle_1_" class="st3" points="700.6,644.9 645,700 644.2,700.8 600.3,744.6 600,745 414.1,931.5 413.5,931 
	421.6,826.8 552,696.3 552.1,696.4 596,652.5 "/>
</svg>
